<mxfile host="app.diagrams.net" modified="2024-02-05T13:05:43.972Z" agent="Mozilla/5.0 (Windows NT 10.0; Win64; x64) AppleWebKit/537.36 (KHTML, like Gecko) Chrome/121.0.0.0 Safari/537.36" version="23.0.1" etag="zzWflWBpj5GfbY5akr--" type="github">
  <diagram name="第 1 页" id="Rd7JN8WwoyUoOUmFZF-X">
    <mxGraphModel>
      <root>
        <mxCell id="0" />
        <mxCell id="1" parent="0" />
      </root>
    </mxGraphModel>
  </diagram>
</mxfile>
